<svg width="23" height="19" viewBox="0 0 23 19" fill="none" xmlns="http://www.w3.org/2000/svg">
<g id="Email">
<path id="Icon" fill-rule="evenodd" clip-rule="evenodd" d="M0.578368 5.38475C0.241547 8.3737 0.256561 11.8209 0.725252 14.7978C0.984589 16.4449 2.39211 17.7076 4.12953 17.8519L5.94531 18.0026C9.73146 18.317 13.539 18.317 17.3252 18.0026L19.141 17.8519C20.8784 17.7076 22.2859 16.4449 22.5452 14.7978C23.0139 11.8209 23.029 8.3739 22.6921 5.38493C22.6486 5.03841 22.5996 4.69236 22.5452 4.34689C22.2859 2.69975 20.8784 1.43701 19.141 1.29276L17.3252 1.14201C13.539 0.827665 9.73146 0.827665 5.94531 1.14201L4.12953 1.29276C2.3921 1.43701 0.984589 2.69975 0.725252 4.34689C0.670868 4.6923 0.621907 5.03829 0.578368 5.38475ZM6.10149 2.85801C9.78372 2.5523 13.4868 2.5523 17.169 2.85801L18.9848 3.00877C19.8917 3.08406 20.6264 3.74322 20.7618 4.60303C20.7759 4.69232 20.7895 4.78165 20.8028 4.87102L14.1168 8.41869C12.5735 9.23757 10.6969 9.23757 9.15364 8.41869L2.46764 4.87106C2.48093 4.78168 2.49461 4.69233 2.50867 4.60303C2.64405 3.74322 3.37877 3.08406 4.28572 3.00877L6.10149 2.85801ZM21.0235 6.72437C21.2567 9.32847 21.1695 11.9522 20.7618 14.5416C20.6264 15.4014 19.8917 16.0606 18.9848 16.1359L17.169 16.2866C13.4868 16.5924 9.78372 16.5924 6.10149 16.2866L4.28572 16.1359C3.37878 16.0606 2.64405 15.4014 2.50867 14.5416C2.10098 11.9522 2.01374 9.3285 2.24695 6.72441L8.2778 9.92441C10.3658 11.0323 12.9046 11.0323 14.9926 9.92441L21.0235 6.72437Z" fill="#C2C3CB"/>
</g>
</svg>
