<svg width="19" height="24" viewBox="0 0 19 24" fill="none" xmlns="http://www.w3.org/2000/svg">
<g id="Lock">
<g id="Icon">
<path d="M7.79668 16.9088C7.79668 15.8925 8.62054 15.0686 9.63682 15.0686C10.6531 15.0686 11.477 15.8925 11.477 16.9088C11.477 17.9251 10.6531 18.7489 9.63682 18.7489C8.62054 18.7489 7.79668 17.9251 7.79668 16.9088Z" fill="#C2C3CB"/>
<path fill-rule="evenodd" clip-rule="evenodd" d="M4.26563 10.2808L3.87866 6.79802C3.82905 6.3515 3.82905 5.90087 3.87866 5.45435L3.90659 5.20299C4.20284 2.53676 6.29888 0.427151 8.96315 0.113709C9.4107 0.0610554 9.86288 0.0610554 10.3104 0.113709C12.9747 0.427151 15.0707 2.53676 15.367 5.20299L15.3949 5.45435C15.4445 5.90087 15.4445 6.3515 15.3949 6.79802L15.0079 10.2808L15.8502 10.348C17.1785 10.454 18.2631 11.4525 18.4784 12.7675C18.9275 15.5101 18.9275 18.3075 18.4784 21.0501C18.2631 22.365 17.1785 23.3635 15.8502 23.4695L14.0149 23.6161C11.1008 23.8487 8.17288 23.8487 5.25885 23.6161L3.42346 23.4695C2.09521 23.3635 1.01062 22.3651 0.795308 21.0501C0.346225 18.3075 0.346225 15.5101 0.795308 12.7675C1.01062 11.4525 2.09521 10.454 3.42346 10.348L4.26563 10.2808ZM9.17815 1.94125C9.48286 1.9054 9.79072 1.9054 10.0954 1.94125C11.9094 2.15465 13.3364 3.59094 13.5381 5.4062L13.566 5.65756C13.6006 5.96902 13.6006 6.28335 13.566 6.59481L13.172 10.1407C10.8176 9.98909 8.45593 9.9891 6.10153 10.1407L5.70755 6.59481C5.67294 6.28335 5.67294 5.96902 5.70755 5.65756L5.73547 5.4062C5.93717 3.59094 7.36423 2.15465 9.17815 1.94125ZM13.8684 12.0358C11.0519 11.8109 8.22185 11.8109 5.40529 12.0358L3.56989 12.1823C3.08541 12.221 2.6898 12.5852 2.61127 13.0648C2.19443 15.6105 2.19443 18.207 2.61127 20.7527C2.6898 21.2324 3.08541 21.5966 3.56989 21.6352L5.40529 21.7818C8.22185 22.0066 11.0519 22.0066 13.8684 21.7818L15.7038 21.6352C16.1883 21.5966 16.5839 21.2324 16.6624 20.7527C17.0793 18.207 17.0793 15.6105 16.6624 13.0648C16.5839 12.5852 16.1883 12.221 15.7038 12.1823L13.8684 12.0358Z" fill="#C2C3CB"/>
</g>
</g>
</svg>
