<?xml version="1.0" standalone="no"?>
<!DOCTYPE svg PUBLIC "-//W3C//DTD SVG 20010904//EN"
 "http://www.w3.org/TR/2001/REC-SVG-20010904/DTD/svg10.dtd">
<svg version="1.0" xmlns="http://www.w3.org/2000/svg"
 width="598.000000pt" height="477.000000pt" viewBox="0 0 598.000000 477.000000"
 preserveAspectRatio="xMidYMid meet">
<metadata>
Created by potrace 1.16, written by Peter Selinger 2001-2019
</metadata>
<g transform="translate(0.000000,477.000000) scale(0.100000,-0.100000)"
fill="#000000" stroke="none">
<path d="M2299 4723 c-1 -4 -1 -12 0 -17 1 -5 -7 -6 -19 -3 -11 3 -18 2 -15
-3 3 -4 -8 -8 -23 -8 -41 0 -72 -6 -72 -12 0 -3 5 -11 12 -18 9 -9 9 -12 0
-12 -7 0 -12 5 -12 10 0 6 -7 10 -16 10 -8 0 -12 -4 -9 -10 3 -5 1 -10 -4 -10
-6 0 -11 5 -11 11 0 6 -6 9 -12 6 -7 -2 -12 -11 -10 -21 3 -14 -20 -22 -51
-17 -4 1 -10 -6 -13 -14 -4 -8 -12 -15 -20 -15 -8 0 -14 -4 -14 -10 0 -5 10
-8 23 -6 13 2 21 10 21 20 -1 9 3 13 8 10 5 -3 7 -12 4 -20 -4 -11 1 -13 19
-10 14 3 23 1 20 -4 -3 -4 -16 -7 -30 -5 -29 3 -43 -10 -20 -19 21 -8 19 -26
-2 -26 -14 0 -15 2 -5 9 11 7 10 10 -3 15 -23 8 -25 8 -22 -5 1 -6 -12 -16
-28 -23 -25 -9 -30 -16 -28 -39 1 -15 -2 -25 -7 -22 -6 3 -7 -1 -4 -9 3 -9 11
-13 17 -9 6 3 -2 -10 -17 -30 -16 -20 -31 -35 -35 -32 -4 2 -8 -2 -8 -10 0 -8
4 -15 9 -15 5 0 6 -9 3 -20 -4 -12 -1 -28 6 -36 10 -12 9 -13 -7 -8 -18 6 -17
5 1 -9 16 -13 17 -18 7 -25 -11 -7 -8 -11 8 -15 13 -3 19 -10 15 -17 -5 -8
-11 -8 -21 1 -12 10 -13 9 -8 -6 6 -14 4 -16 -7 -10 -12 7 -12 6 -1 -7 8 -11
10 -23 3 -40 -7 -18 -4 -29 10 -47 17 -21 24 -20 20 3 -1 5 5 3 14 -4 18 -15
11 -24 -22 -35 -15 -4 -23 -2 -23 5 0 6 4 8 10 5 6 -4 7 1 3 11 -6 15 -7 15
-15 0 -6 -11 -6 -22 0 -29 6 -7 8 -29 6 -49 -1 -21 1 -40 7 -43 5 -4 9 -13 9
-22 0 -13 -2 -14 -17 -2 -11 10 -14 10 -9 2 5 -9 1 -13 -11 -14 -10 0 -37 -10
-60 -22 -23 -12 -85 -44 -138 -70 -57 -29 -93 -53 -89 -59 4 -7 2 -8 -4 -4
-14 9 -52 -15 -52 -32 0 -7 -4 -10 -10 -7 -5 3 -10 0 -10 -7 0 -9 -3 -9 -10 2
-6 9 -10 10 -10 3 0 -6 -9 -15 -20 -18 -11 -4 -17 -11 -14 -17 5 -7 1 -9 -9
-5 -10 4 -17 1 -17 -6 0 -7 -18 -24 -39 -37 -21 -14 -37 -28 -35 -32 2 -4 0
-9 -6 -13 -5 -3 -10 -2 -10 4 0 5 -13 -3 -29 -17 -17 -15 -46 -40 -65 -56 -19
-17 -32 -34 -29 -40 4 -5 -1 -7 -10 -3 -10 3 -17 3 -17 -1 0 -4 -32 -41 -70
-82 -39 -41 -73 -83 -76 -95 -4 -11 -15 -26 -25 -33 -11 -7 -19 -18 -19 -23 0
-6 -12 -26 -26 -44 -15 -20 -23 -39 -18 -46 4 -7 3 -9 -3 -6 -13 8 -26 -20
-16 -35 3 -7 1 -8 -5 -4 -8 5 -12 -2 -13 -21 0 -23 -2 -25 -8 -9 -7 19 -8 19
-13 -2 -4 -13 -2 -22 5 -22 6 0 2 -7 -9 -15 -16 -13 -17 -16 -4 -25 13 -8 13
-10 -1 -10 -9 0 -22 -7 -29 -15 -10 -12 -10 -15 1 -15 8 0 4 -7 -8 -15 -13 -9
-20 -23 -18 -35 2 -11 -1 -19 -8 -17 -7 1 -11 -8 -11 -20 1 -13 -3 -23 -9 -23
-6 0 -7 -3 -4 -7 4 -3 0 -15 -10 -25 -9 -11 -11 -18 -5 -18 7 0 12 -5 12 -10
0 -6 -6 -9 -12 -8 -8 2 -13 -6 -12 -19 0 -12 -4 -21 -9 -20 -12 2 -38 -89 -28
-99 3 -4 1 -4 -5 -1 -14 8 -28 -38 -18 -55 4 -6 3 -8 -4 -4 -6 4 -17 -14 -26
-48 -18 -60 -20 -82 -8 -89 4 -2 2 -3 -4 -1 -17 4 -46 -109 -31 -118 9 -6 9
-8 0 -8 -7 0 -13 -6 -13 -13 0 -13 -62 -18 -74 -6 -4 3 -18 4 -32 1 -18 -3
-22 -7 -13 -13 8 -4 19 -3 27 3 7 7 4 -5 -8 -25 -25 -42 -27 -43 -27 -22 0 8
4 15 9 15 4 0 8 5 8 11 0 6 -6 9 -12 6 -7 -2 -23 -1 -35 4 -16 6 -29 2 -50
-14 -15 -12 -22 -14 -15 -5 10 13 10 17 -2 21 -17 7 -30 -8 -21 -22 3 -5 1
-12 -5 -16 -5 -3 -10 1 -10 9 0 19 -14 21 -28 4 -5 -8 -6 -22 -1 -33 6 -17 8
-16 9 10 l2 30 7 -30 c5 -22 3 -31 -9 -33 -8 -2 -26 -14 -39 -25 -13 -12 -21
-17 -18 -11 4 6 0 20 -8 30 -13 18 -14 18 -8 -5 5 -19 3 -22 -8 -16 -23 15
-60 14 -66 -1 -3 -8 -12 -14 -20 -14 -9 0 -13 -6 -9 -15 3 -8 0 -15 -6 -15 -6
0 -9 -2 -6 -5 8 -8 39 6 33 15 -4 7 17 7 35 0 3 -1 8 -2 13 -1 10 1 9 -11 -3
-29 -8 -13 -10 -12 -10 4 0 20 0 20 -15 0 -15 -19 -15 -19 -9 1 5 18 3 17 -15
-4 -12 -13 -21 -17 -21 -10 0 16 -13 3 -18 -19 -6 -25 -5 -44 3 -69 5 -14 3
-23 -4 -23 -5 0 -8 6 -5 14 3 7 -2 16 -10 19 -11 5 -14 -2 -12 -33 2 -22 0
-37 -4 -35 -4 2 -7 -10 -7 -28 -1 -18 2 -25 6 -17 6 16 24 20 36 8 4 -3 -7
-14 -24 -23 -17 -8 -31 -18 -31 -21 0 -3 4 -2 10 1 5 3 18 1 27 -4 12 -7 13
-10 4 -11 -8 0 -11 -6 -7 -16 4 -10 2 -13 -7 -8 -8 5 -7 2 2 -9 8 -10 11 -20
8 -24 -4 -3 -2 -12 5 -20 9 -11 7 -12 -8 -6 -17 6 -17 5 -5 -10 7 -10 9 -17 3
-17 -6 0 -12 5 -14 12 -2 6 -12 12 -22 14 -13 2 -15 -1 -6 -11 7 -8 20 -30 30
-50 15 -30 16 -34 3 -23 -13 10 -17 10 -20 1 -3 -7 -12 -13 -21 -13 -15 1 -15
2 1 11 20 12 23 55 3 62 -16 6 -26 -1 -26 -17 0 -6 5 -4 10 4 8 13 10 12 10
-2 0 -10 -4 -18 -9 -18 -24 0 -15 -36 14 -53 16 -10 22 -16 11 -13 -13 5 -17
2 -12 -9 3 -9 1 -15 -7 -14 -6 1 -23 0 -37 -1 -18 -2 -20 -4 -7 -7 9 -2 17 -9
17 -14 0 -6 -4 -8 -9 -4 -12 7 -6 -26 9 -54 9 -17 8 -22 -5 -27 -8 -3 -15 -13
-15 -21 0 -9 6 -13 14 -10 8 3 17 0 20 -8 3 -9 0 -12 -8 -9 -19 7 -30 -14 -16
-31 8 -9 8 -15 0 -20 -8 -5 -7 -11 2 -23 10 -12 10 -14 0 -8 -7 4 -12 2 -12
-4 0 -8 10 -9 30 -5 18 4 30 3 30 -4 0 -6 -6 -8 -13 -5 -8 3 -22 -12 -36 -36
-15 -28 -18 -38 -8 -34 10 3 16 -3 19 -20 3 -14 2 -25 -1 -24 -18 2 -22 -4
-11 -17 10 -12 10 -15 -1 -15 -9 -1 -8 -4 4 -11 17 -10 17 -12 2 -36 -12 -17
-13 -23 -4 -17 10 6 10 3 -1 -11 -14 -17 -13 -18 8 -13 14 4 22 2 22 -7 0 -7
6 -16 13 -18 7 -3 6 -6 -5 -6 -9 -1 -20 4 -23 9 -12 19 -25 0 -15 -21 8 -14 7
-19 -2 -19 -9 0 -9 -3 2 -10 9 -6 10 -10 3 -10 -16 0 -13 -111 4 -128 19 -20
38 -15 22 6 -13 15 -12 16 3 4 9 -8 23 -10 30 -6 11 6 11 4 0 -7 -7 -7 -24
-14 -37 -14 -25 -2 -35 -19 -12 -21 6 -1 16 -2 21 -3 5 0 3 -7 -3 -15 -6 -7
-9 -22 -6 -32 3 -11 -1 -6 -8 10 -22 46 -30 3 -12 -64 5 -17 4 -21 -3 -12 -7
11 -11 8 -14 -12 -3 -14 -2 -26 3 -26 4 0 7 -13 7 -30 -1 -16 5 -36 12 -45 7
-8 9 -15 6 -15 -4 0 -2 -9 4 -20 9 -16 8 -19 -6 -13 -12 4 -15 3 -10 -5 4 -7
2 -12 -3 -12 -6 0 -11 -4 -11 -10 0 -5 8 -6 17 -3 13 5 15 2 10 -11 -4 -9 -3
-15 2 -12 5 3 14 0 20 -8 8 -10 6 -19 -9 -38 -10 -14 -17 -28 -14 -31 3 -3 -3
-3 -15 0 -12 3 -21 1 -21 -6 0 -6 5 -11 11 -11 5 0 7 -5 4 -10 -3 -6 1 -13 9
-16 12 -4 15 -16 12 -40 -2 -19 2 -38 8 -42 6 -4 17 -17 24 -29 10 -20 10 -23
-4 -23 -8 0 -12 5 -9 10 3 6 2 10 -3 10 -6 0 -12 -7 -16 -15 -3 -8 0 -14 6
-12 7 1 12 -8 13 -20 0 -22 15 -46 15 -24 0 7 4 10 8 7 12 -7 36 39 28 53 -4
7 -1 9 8 5 14 -5 14 -9 1 -35 -17 -33 -18 -39 -3 -57 8 -10 13 -9 23 5 7 9 11
24 8 33 -3 10 -1 9 7 -3 6 -9 16 -14 22 -11 7 4 8 2 4 -4 -4 -7 -14 -12 -23
-12 -9 0 -14 -3 -10 -6 3 -3 -3 -16 -14 -27 -14 -15 -16 -23 -7 -28 17 -11 28
-1 22 19 -4 11 -3 13 3 6 4 -7 17 -14 28 -17 18 -4 18 -5 -2 -6 -13 0 -23 -5
-23 -11 0 -5 -6 -10 -14 -10 -8 0 -18 -4 -21 -10 -4 -6 1 -7 11 -3 12 4 15 3
10 -5 -5 -8 0 -12 14 -12 12 0 19 -4 15 -9 -3 -5 -1 -12 5 -16 5 -3 10 -2 10
4 0 6 7 8 15 5 10 -4 14 -14 10 -28 -4 -12 -3 -16 2 -10 4 6 16 10 26 8 9 -1
23 6 30 17 8 10 17 16 20 12 4 -3 7 1 7 11 0 9 4 15 10 11 12 -8 1 -35 -15
-35 -7 0 -15 -9 -18 -19 -6 -24 33 -38 47 -17 8 11 13 10 28 -10 24 -30 52
-22 44 15 -3 14 -3 20 0 13 5 -10 9 -9 20 5 13 16 13 15 4 -9 -5 -16 -7 -28
-4 -28 4 0 1 -6 -5 -14 -9 -11 -8 -15 4 -20 11 -4 14 -2 9 6 -5 8 -2 9 9 5 11
-4 17 -1 17 9 0 8 -4 13 -9 9 -6 -3 -9 4 -8 15 1 23 17 28 17 5 0 -8 5 -15 10
-15 6 0 10 -8 10 -18 0 -17 5 -18 45 -12 25 4 48 9 50 12 10 9 -7 38 -18 31
-6 -4 -7 -1 -2 6 5 9 13 7 31 -10 25 -23 32 -35 14 -24 -5 3 -10 1 -10 -4 0
-13 20 -14 40 -2 8 6 19 7 24 4 16 -11 98 -12 123 -2 14 5 25 4 29 -2 3 -6 12
-8 19 -5 7 2 18 -1 25 -7 9 -9 15 -8 23 5 10 15 12 15 36 0 l26 -17 -18 28
c-10 16 -16 31 -13 35 3 3 6 -1 6 -9 1 -10 3 -9 11 4 15 26 37 22 32 -7 -4
-19 0 -24 23 -29 16 -3 37 -1 48 5 13 7 16 7 12 -1 -4 -6 -2 -11 3 -11 6 0 12
10 12 23 1 15 3 17 6 5 5 -21 30 -31 39 -16 4 6 3 8 -4 4 -6 -3 -14 -1 -18 5
-4 7 -3 9 4 5 5 -3 13 0 15 6 4 10 6 10 6 1 1 -7 10 -13 22 -13 11 0 17 -4 14
-10 -4 -6 1 -7 10 -3 10 3 21 0 26 -8 5 -8 9 -9 9 -3 0 7 14 11 35 9 24 -1 35
2 35 12 0 7 5 13 10 13 6 0 10 -6 10 -14 0 -8 5 -18 12 -22 6 -4 8 -3 4 4 -3
6 -2 13 4 17 5 3 10 2 10 -3 0 -5 27 -8 60 -8 54 0 59 2 56 20 -2 12 -9 20
-16 18 -6 -1 -9 2 -6 7 4 5 16 4 31 -2 26 -13 36 -33 11 -24 -10 4 -13 1 -9
-8 3 -8 9 -12 14 -9 6 3 16 1 22 -5 9 -7 21 -6 41 4 32 17 39 18 32 6 -3 -4
12 -7 34 -6 22 1 37 -1 34 -6 -7 -11 35 -2 52 12 10 9 17 9 28 0 7 -6 24 -9
37 -7 13 3 26 5 29 5 3 1 -2 6 -10 11 -8 5 -10 10 -4 10 6 0 17 -7 24 -15 7
-8 16 -12 21 -9 5 3 9 0 9 -7 0 -7 3 -9 7 -6 3 4 -2 17 -13 29 -15 18 -16 20
-1 9 9 -7 17 -10 17 -6 0 4 8 1 17 -6 9 -8 14 -9 10 -2 -5 7 1 13 15 15 16 2
22 9 20 21 -2 10 3 16 10 15 7 -2 12 4 10 14 -1 9 1 19 6 22 10 6 8 -56 -2
-72 -4 -7 -2 -12 3 -12 6 0 11 7 11 16 0 8 4 13 9 9 6 -3 15 3 20 14 8 13 17
17 32 14 20 -5 21 -3 17 26 -3 17 0 35 5 38 6 3 7 1 4 -4 -4 -6 0 -14 9 -17
12 -5 14 0 10 24 -2 17 0 30 5 30 6 0 8 4 4 10 -3 5 -13 6 -23 3 -13 -4 -13
-2 3 10 17 13 20 14 23 1 3 -12 9 -10 32 6 27 19 29 20 39 3 9 -16 10 -16 11
-2 0 9 7 22 15 29 8 7 12 17 8 24 -4 6 2 4 12 -4 11 -9 16 -10 11 -2 -4 6 -3
12 3 12 8 0 6 49 -4 58 -2 2 1 17 5 33 5 16 5 27 0 24 -4 -2 -10 4 -13 15 -3
11 -1 23 4 26 5 3 6 10 3 16 -4 6 -2 8 4 4 6 -3 14 4 18 16 7 24 4 35 -9 30
-5 -1 -5 3 -1 9 4 8 0 9 -15 4 -15 -4 -21 -2 -21 9 0 13 5 14 26 6 32 -12 34
-12 34 0 0 6 -8 10 -17 11 -11 0 -13 3 -5 6 6 2 10 9 6 14 -3 5 -3 9 0 9 3 0
12 -12 21 -27 13 -23 15 -24 10 -5 -4 13 -2 22 5 22 6 0 9 -4 6 -8 -2 -4 -1
-14 5 -22 7 -13 9 -12 9 3 0 23 58 24 67 1 5 -13 7 -13 14 -2 7 10 9 10 9 -2
1 -9 6 -5 16 10 l15 25 -6 -25 c-4 -17 -3 -21 3 -11 8 11 11 11 16 0 3 -8 3
-4 0 9 -5 21 -2 22 63 24 37 1 76 2 86 1 9 0 17 8 17 16 0 11 3 12 8 4 8 -13
52 -6 52 8 0 5 8 9 18 9 15 0 15 -2 2 -11 -12 -8 -9 -9 10 -4 14 3 32 8 40 10
8 2 23 4 33 4 10 1 15 6 12 11 -4 6 12 10 40 10 32 0 44 3 39 12 -4 7 -3 8 4
4 13 -8 64 3 58 13 -2 3 9 6 24 7 16 1 52 11 80 23 29 12 54 20 57 17 3 -3 14
4 24 15 9 11 19 20 21 19 10 -4 58 22 67 37 8 14 11 15 11 3 1 -10 4 -9 10 5
5 11 9 14 9 7 1 -9 15 -5 46 13 25 14 53 25 63 25 15 0 15 2 2 10 -10 6 -11
10 -2 10 6 0 12 7 12 15 0 8 5 15 11 15 5 0 7 -5 3 -12 -5 -7 -3 -8 5 -4 7 5
10 15 7 25 -5 14 -4 14 6 -1 11 -15 13 -15 30 4 11 14 18 16 18 8 0 -8 10 0
23 17 12 16 27 32 32 33 6 2 18 14 28 27 10 13 25 23 33 23 8 0 14 6 14 13 0
8 4 7 10 -3 6 -9 10 -10 10 -3 0 6 8 14 18 16 12 3 9 5 -8 6 -22 2 -21 3 10
14 19 7 34 15 33 19 -1 4 18 28 43 52 27 27 42 51 38 57 -4 7 -3 9 3 6 6 -4
19 0 29 8 18 15 18 15 -1 9 -11 -3 -5 3 12 15 20 12 30 26 27 35 -3 8 0 17 7
22 8 5 10 3 4 -6 -5 -9 -4 -11 3 -6 7 4 12 16 12 26 0 10 5 22 12 26 7 5 8 2
3 -7 -12 -21 7 0 46 51 18 25 27 41 18 35 -8 -5 -7 -2 4 7 11 10 15 23 11 30
-4 7 -4 10 1 6 11 -11 45 36 46 64 0 22 1 22 9 3 7 -17 9 -17 9 -3 1 10 10 34
21 53 11 20 16 34 10 30 -17 -10 -11 6 8 23 10 10 12 13 5 8 -22 -15 -14 2 15
30 15 15 21 23 15 20 -21 -11 -15 4 10 26 12 11 15 16 7 12 -12 -7 -13 -5 -3
8 7 8 10 18 6 21 -3 4 -1 7 5 7 6 0 9 7 5 17 -4 11 -3 14 6 9 11 -7 27 22 21
40 -1 4 4 11 12 15 11 7 11 9 0 9 -10 0 -10 3 1 15 9 8 14 22 13 32 -2 9 5 26
16 37 15 16 22 49 17 82 0 4 5 11 13 15 11 7 11 9 0 9 -10 0 -9 4 3 16 8 9 13
24 10 33 -3 10 1 31 9 47 20 42 30 94 17 94 -7 0 -7 8 0 28 6 15 11 65 11 112
-1 54 4 87 11 92 9 6 8 11 -3 18 -10 6 -11 10 -2 10 7 0 12 15 12 40 0 22 -4
40 -10 40 -5 0 -10 36 -10 83 -2 133 -2 137 -12 137 -5 0 -7 9 -3 19 8 25 -34
198 -52 217 -9 9 -10 14 -3 14 6 0 8 5 5 10 -4 6 -10 8 -14 6 -4 -3 -7 5 -6
17 1 12 -3 31 -8 42 -6 11 -10 24 -9 28 1 5 -6 20 -16 35 -10 15 -36 62 -58
104 -21 43 -46 78 -54 79 -11 0 -11 2 -2 6 10 4 10 8 0 21 -8 10 -9 13 -1 9 6
-4 14 -3 18 3 3 5 0 10 -8 10 -11 0 -13 7 -10 23 5 21 5 21 -9 3 -13 -17 -16
-17 -21 -3 -4 11 1 18 14 22 28 9 49 -21 44 -62 -4 -34 11 -45 22 -17 6 15 8
15 21 -2 14 -19 15 -19 8 0 -5 15 -4 16 7 8 10 -8 13 -6 14 10 1 11 -1 18 -4
14 -3 -3 -12 -1 -20 5 -10 9 -13 8 -13 0 0 -7 -5 -9 -10 -6 -6 4 -8 10 -5 15
3 5 -3 13 -12 19 -16 9 -15 10 7 8 14 -1 31 -9 38 -17 11 -13 12 -13 10 0 -3
12 13 15 87 16 50 0 96 -2 103 -4 22 -7 13 -24 -10 -17 -22 6 -22 5 1 -8 l24
-15 -21 -6 c-31 -10 -27 -21 8 -22 26 -1 29 2 26 23 -3 13 -1 21 5 18 5 -4 9
-2 9 4 0 6 7 8 15 5 14 -6 20 7 15 31 -1 6 4 5 11 -2 8 -8 19 -9 35 -3 14 6
24 6 24 0 0 -5 21 -7 48 -5 26 1 53 -2 60 -7 6 -6 12 -8 12 -4 0 4 11 0 23 -9
20 -13 24 -13 24 -1 0 9 -7 12 -16 9 -13 -5 -14 -3 -4 7 22 24 40 20 35 -6 -4
-20 -1 -23 14 -17 11 3 22 11 26 17 8 13 38 17 38 5 0 -5 9 -9 20 -9 11 0 20
5 20 12 0 6 3 8 7 5 3 -4 12 -2 19 4 9 7 12 6 10 -8 -2 -10 -8 -19 -14 -19 -7
-1 -15 -3 -19 -4 -5 -2 -21 -3 -38 -4 -23 -1 -31 -6 -33 -23 -2 -13 1 -23 7
-23 6 0 11 5 11 10 0 6 5 10 11 10 5 0 8 -4 5 -9 -3 -5 1 -12 10 -15 21 -8 26
-8 20 2 -3 4 11 9 30 9 19 1 36 -2 39 -6 2 -4 21 -6 42 -3 47 5 89 5 129 0 23
-3 30 0 27 9 -3 7 -10 10 -16 6 -6 -3 -7 -1 -3 5 5 9 12 9 26 0 10 -7 17 -16
14 -20 -3 -4 3 -5 13 -1 30 10 34 14 27 25 -4 6 -10 5 -15 -3 -5 -8 -9 -9 -9
-4 0 6 5 17 10 25 9 13 11 13 20 0 5 -8 7 -23 4 -32 -6 -19 11 -25 21 -8 8 13
-26 71 -37 64 -4 -3 -8 0 -8 5 0 13 2 13 35 1 15 -6 32 -7 38 -3 18 11 38 12
31 2 -3 -5 0 -9 5 -9 6 0 11 6 11 13 0 8 4 7 10 -3 8 -12 10 -12 10 -1 0 10 5
10 25 -3 26 -17 51 -13 39 5 -3 6 3 5 15 -3 11 -7 20 -17 20 -23 -4 -35 2 -44
27 -39 19 3 24 1 18 -8 -6 -10 -3 -9 9 1 9 7 26 11 37 8 28 -7 44 16 30 42 -6
12 -15 21 -21 21 -6 0 -7 -5 -4 -11 4 -6 -2 -13 -14 -16 -11 -3 -18 -10 -14
-15 3 -6 0 -8 -8 -4 -8 3 -22 9 -31 12 -10 4 -18 9 -19 13 0 3 -2 14 -4 24 -3
15 -1 16 11 6 7 -6 11 -16 7 -21 -3 -6 0 -8 8 -6 8 3 13 11 11 17 -1 6 3 11 9
11 6 0 9 -7 5 -15 -7 -20 1 -19 24 3 15 14 33 18 72 16 33 -2 61 3 75 12 28
18 33 18 33 -1 0 -8 8 -15 19 -15 26 0 44 -25 36 -52 -4 -16 -3 -19 3 -9 6 7
15 10 22 6 7 -4 4 4 -5 19 -10 15 -13 26 -6 26 6 0 11 5 11 11 0 6 -7 9 -15 5
-18 -7 -45 3 -45 16 0 5 9 6 20 3 15 -5 20 -2 20 10 0 13 6 16 25 13 13 -3 22
-1 19 3 -3 5 2 9 10 9 9 0 13 -6 10 -14 -3 -9 4 -15 21 -18 30 -6 46 16 25 35
-10 9 -11 9 -6 0 3 -6 2 -14 -3 -17 -20 -13 -18 23 2 37 21 15 21 15 2 13 -11
-2 -14 -1 -7 1 7 3 10 9 7 14 -9 14 2 11 19 -7 9 -8 16 -11 16 -5 0 5 7 17 16
25 8 9 16 25 17 36 1 11 7 18 13 16 17 -7 25 19 11 34 -8 9 -9 11 -1 7 7 -4
18 0 25 9 10 12 10 17 0 23 -9 6 -8 10 6 13 14 4 19 13 17 36 -1 19 4 33 13
36 8 3 11 10 8 16 -3 5 -1 10 6 10 7 0 10 2 7 6 -3 3 -2 21 3 41 4 20 5 42 1
47 -11 18 -8 40 8 60 9 12 10 17 2 12 -9 -6 -11 -1 -8 18 3 17 -1 29 -12 36
-9 5 -12 10 -6 10 15 0 24 44 13 62 -5 7 -1 20 8 30 18 20 4 25 -16 6 -10 -11
-11 -10 -6 5 4 9 15 17 24 18 11 0 12 2 3 6 -10 4 -10 8 0 21 7 10 8 14 4 10
-12 -10 -35 21 -36 46 0 19 -1 19 -13 2 -12 -16 -13 -16 -14 3 -1 11 2 23 8
26 5 4 9 12 9 18 0 8 -3 8 -9 -1 -6 -10 -11 -9 -22 4 -8 10 -9 15 -3 11 7 -4
18 1 25 10 12 15 12 16 -4 10 -10 -4 -16 -3 -13 2 3 4 -1 16 -8 27 -8 10 -11
25 -8 33 4 10 1 12 -9 7 -8 -4 -6 -1 3 7 10 8 14 18 10 23 -4 5 3 0 16 -10 12
-11 22 -15 22 -10 1 11 24 -27 26 -43 2 -10 -3 -10 -19 -3 -20 10 -21 9 -3 -2
11 -7 29 -22 40 -34 12 -12 28 -24 36 -27 12 -4 11 -6 -2 -6 -10 -1 -18 -8
-18 -17 0 -9 -5 -12 -12 -8 -9 5 -9 2 1 -9 18 -22 33 -22 48 2 9 15 8 23 -3
40 -14 20 -11 26 10 22 5 -1 6 5 2 14 -3 9 -6 19 -6 21 0 3 -4 2 -10 -1 -6 -4
-7 1 -3 11 5 13 2 15 -15 9 -14 -4 -22 -2 -22 5 0 6 4 9 9 6 5 -3 11 5 13 18
4 19 1 23 -16 21 -12 -1 -21 -4 -21 -5 0 -1 -10 -4 -22 -5 -23 -2 -31 9 -14
20 5 3 13 0 17 -6 5 -9 11 -7 21 6 19 27 17 32 -19 37 -26 4 -28 3 -15 -7 21
-15 21 -22 2 -22 -8 0 -15 7 -15 16 0 11 -3 10 -15 -5 -8 -10 -15 -14 -15 -8
0 6 8 18 18 27 15 14 22 17 37 17 3 0 1 9 -5 21 -9 16 -17 19 -40 14 -32 -7
-54 1 -44 16 4 6 11 5 20 -2 12 -9 18 -9 27 0 9 9 7 13 -11 17 -12 4 -22 11
-23 18 0 6 -4 1 -9 -11 -5 -13 -14 -23 -20 -23 -14 0 -13 27 3 34 6 3 3 4 -8
3 -12 -1 -19 3 -17 11 1 8 -2 11 -7 8 -5 -4 -12 2 -16 13 -3 11 -12 22 -20 25
-19 7 -20 -10 -1 -21 8 -4 25 -26 37 -48 24 -40 24 -43 24 -345 0 -302 0 -305
-24 -346 -13 -24 -41 -52 -65 -65 l-41 -24 -1059 -5 -1059 -5 60 -45 c202
-151 355 -332 463 -550 125 -249 186 -561 160 -811 -11 -111 -29 -214 -51
-294 -6 -22 -13 -52 -16 -68 -3 -15 -9 -30 -14 -33 -5 -3 -9 -12 -9 -20 0 -28
-109 -245 -164 -328 -290 -434 -781 -697 -1301 -696 -236 1 -499 65 -691 169
l-53 28 -3 -271 c-3 -263 -4 -272 -26 -303 -42 -59 -33 -58 -777 -58 -632 0
-682 1 -712 18 -62 33 -68 53 -71 240 -3 134 -1 172 10 178 10 7 10 9 1 9 -10
0 -13 99 -13 463 0 509 -1 505 63 551 27 20 42 21 419 24 363 2 390 4 385 20
-66 226 -82 338 -74 550 10 299 94 559 256 801 80 118 81 119 176 219 193 202
422 339 690 412 l100 27 5 259 c5 249 6 261 29 300 32 56 117 101 179 95 13
-2 30 3 39 11 12 9 15 10 9 1 -6 -10 36 -13 198 -13 154 0 206 3 209 13 4 10
6 10 6 0 1 -15 61 -18 61 -3 0 5 -6 7 -14 4 -7 -3 -16 2 -20 12 -5 13 -3 14 6
7 8 -6 22 -7 33 -2 32 12 37 10 30 -11 -4 -14 -2 -20 9 -20 9 0 13 6 10 14 -3
8 0 17 6 21 7 4 13 -1 16 -12 8 -29 70 -31 79 -3 4 12 5 24 2 27 -9 8 -82 7
-97 -2 -8 -5 -15 -5 -17 2 -4 12 -87 5 -91 -8 -2 -5 -10 -9 -18 -9 -8 0 -14
-4 -14 -8 0 -5 -38 -8 -85 -8 -47 1 -85 4 -85 7 0 14 14 18 27 8 10 -9 13 -8
13 5 0 20 -24 21 -43 1 -13 -13 -16 -13 -21 0 -3 8 -13 15 -21 15 -9 0 -13 -4
-10 -10 3 -5 1 -10 -5 -10 -6 0 -9 -4 -5 -9 3 -6 -3 -9 -13 -8 -14 1 -18 7
-15 22 4 15 2 17 -5 6 -11 -16 -56 -5 -46 11 4 6 2 8 -4 4 -6 -3 -9 -15 -7
-26 3 -15 -1 -19 -20 -18 -13 1 -22 5 -19 9 2 4 -2 12 -9 18 -14 11 -67 -6
-67 -21 0 -5 -5 -8 -11 -8 -16 0 0 20 25 31 19 8 19 9 1 7 -11 -2 -25 1 -31 5
-7 4 -17 0 -24 -8 -15 -18 -34 -20 -24 -3 4 7 3 8 -4 4 -6 -4 -9 -13 -6 -21 4
-8 11 -12 17 -8 6 4 7 1 2 -6 -5 -9 -15 -5 -37 16 l-29 28 9 -26 c8 -19 7 -26
-3 -26 -7 0 -11 6 -8 14 3 7 0 13 -7 13 -6 0 -9 4 -5 9 3 5 1 12 -5 16 -5 3
-11 3 -11 -2z"/>
<path d="M4589 4721 c-17 -5 -49 -34 -49 -44 0 -4 33 -6 73 -3 89 5 86 4 64
17 -13 8 -22 7 -32 -1 -8 -7 -16 -7 -19 -1 -3 5 -15 7 -26 4 -11 -3 -20 0 -20
6 0 6 7 8 17 4 11 -4 14 -3 9 5 -4 7 -2 12 3 12 6 0 11 -4 11 -8 0 -4 16 -7
35 -7 19 0 35 4 35 8 0 5 5 5 11 1 6 -3 9 -14 6 -25 -5 -17 10 -18 322 -18
192 -1 320 3 312 8 -8 5 -24 8 -37 6 -24 -2 -31 5 -17 18 3 4 12 2 20 -4 10
-9 13 -8 13 5 0 20 -24 21 -43 1 -13 -13 -16 -13 -21 0 -3 8 -13 15 -21 15 -9
0 -13 -4 -10 -10 3 -5 1 -10 -5 -10 -6 0 -9 -4 -5 -9 3 -6 -3 -9 -13 -8 -14 1
-18 7 -15 22 4 15 2 17 -5 6 -11 -16 -56 -5 -46 11 4 6 2 8 -4 4 -6 -3 -9 -15
-7 -26 3 -16 -2 -20 -21 -20 -14 0 -23 4 -20 9 9 14 -17 29 -49 27 -16 -1 -35
2 -41 6 -6 5 -17 2 -24 -7 -15 -18 -35 -20 -24 -3 5 7 3 8 -6 3 -10 -6 -9 -11
5 -22 18 -12 17 -13 -7 -11 -15 1 -25 5 -22 9 2 4 -4 13 -14 20 -15 13 -16 12
-4 -3 8 -9 9 -19 4 -22 -10 -6 -27 10 -34 29 -1 6 -7 9 -11 7 -4 -1 -17 -4
-29 -6 -12 -1 -24 -9 -26 -17 -2 -8 0 -10 5 -4 11 14 50 12 65 -3 9 -9 9 -12
0 -12 -7 0 -12 4 -12 10 0 5 -6 7 -13 4 -23 -9 -87 -10 -87 -2 0 4 4 8 8 8 5
0 9 6 9 13 0 9 -25 12 -89 12 -48 0 -93 -2 -99 -4z"/>
<path d="M2803 4434 c2 -22 -3 -29 -23 -34 -21 -5 -22 -7 -8 -13 12 -4 24 2
38 20 11 14 20 20 20 14 0 -7 -12 -23 -26 -36 -16 -15 -24 -31 -20 -40 7 -18
33 -20 39 -2 2 6 3 4 2 -5 -2 -9 2 -19 9 -22 6 -2 -2 -5 -17 -5 -21 -1 -32 7
-48 34 -13 21 -28 34 -38 33 -10 -2 -15 3 -13 12 3 12 1 12 -9 3 -10 -10 -10
-18 -1 -38 6 -14 16 -25 21 -25 13 0 41 -29 41 -42 0 -11 -60 -1 -74 13 -12
11 -49 12 -42 1 3 -5 -8 -6 -24 -4 -17 2 -27 8 -24 13 3 5 -6 13 -20 19 -14 5
-26 11 -26 13 0 9 36 3 42 -7 8 -12 108 -16 108 -4 0 4 -12 19 -26 33 -25 25
-27 25 -50 10 -30 -20 -32 -3 -1 18 l22 16 -22 -6 c-13 -3 -23 -9 -23 -14 0
-5 -9 -9 -19 -9 -18 0 -36 -25 -32 -44 1 -5 -4 -13 -11 -17 -10 -7 -8 -9 5 -9
11 0 15 -4 11 -12 -5 -7 -2 -9 9 -5 19 7 41 -15 27 -29 -11 -11 -2 -54 11 -54
4 0 7 -9 6 -19 0 -11 -4 -18 -8 -15 -4 2 -11 -1 -15 -7 -3 -6 0 -15 7 -20 10
-6 8 -9 -9 -9 -17 0 -22 -5 -20 -17 2 -9 9 -18 17 -21 8 -3 11 0 7 6 -3 6 1 9
11 7 10 -1 17 -8 16 -14 -2 -6 3 -11 11 -11 15 0 10 -51 -7 -61 -5 -4 0 -10
12 -14 27 -8 41 2 21 15 -9 6 -10 10 -3 10 6 0 9 9 6 20 -3 12 0 20 6 20 7 0
10 -4 6 -9 -3 -5 -1 -12 5 -16 5 -3 10 -1 10 4 0 21 21 11 30 -14 6 -17 17
-25 33 -25 13 0 28 -5 35 -12 9 -9 15 -9 25 1 8 8 8 11 1 9 -14 -3 -16 5 -8
29 3 10 8 24 10 32 3 9 8 10 17 3 17 -14 46 -9 58 9 6 10 9 11 10 2 1 -7 2
-18 3 -25 0 -6 8 -13 16 -15 13 -4 13 -3 0 6 -11 8 -3 11 35 12 28 1 58 2 68
1 9 -1 17 3 17 8 0 6 -5 10 -11 10 -5 0 -8 4 -4 9 9 16 -30 32 -45 18 -10 -10
-11 -7 -5 12 6 21 5 23 -22 17 -31 -6 -46 3 -82 49 l-23 30 7 -37 c15 -80 6
-94 -36 -57 -23 21 -23 22 -3 17 17 -4 20 -2 17 13 -3 11 -10 19 -15 19 -5 0
-7 4 -4 8 2 4 -4 9 -15 9 -24 2 -24 -6 -1 -23 15 -12 15 -12 -5 -7 -17 4 -23
13 -23 33 0 35 23 45 46 19 9 -10 19 -17 22 -14 3 3 -3 15 -14 27 -18 20 -18
21 -1 15 10 -4 25 -1 32 6 8 6 21 18 29 25 9 6 13 18 10 26 -3 7 2 16 11 20
12 4 15 1 10 -13 -7 -22 13 -41 41 -39 16 2 19 8 16 40 -3 29 0 38 11 38 9 0
17 -6 20 -12 2 -7 2 1 -1 17 -6 40 -10 45 -27 38 -8 -3 -15 -15 -15 -28 0 -19
-5 -23 -27 -22 -16 1 -32 6 -36 12 -5 6 -7 4 -6 -5 3 -23 -11 -50 -27 -50 -9
0 -11 -6 -7 -17 6 -15 5 -16 -9 -3 -10 10 -12 17 -5 21 5 4 7 14 4 23 -3 8 -1
18 4 22 6 3 8 16 5 28 -5 20 -2 22 30 18 25 -3 32 -7 23 -13 -11 -7 -11 -9 2
-9 9 0 19 8 23 18 3 9 9 23 12 30 3 6 1 12 -6 12 -6 0 -8 -4 -5 -10 3 -5 -3
-10 -13 -10 -11 0 -22 6 -25 14 -3 7 -18 16 -34 18 -15 3 -36 8 -45 13 -14 6
-17 2 -15 -21z"/>
<path d="M5874 4265 c-4 -9 -18 -23 -33 -31 -15 -9 -18 -13 -6 -9 34 11 37 10
42 -4 4 -9 0 -11 -15 -7 -11 4 -23 2 -27 -4 -3 -5 1 -10 9 -10 19 0 21 -17 4
-22 -12 -4 -21 -38 -9 -38 4 0 8 -7 8 -15 0 -8 -5 -15 -11 -15 -6 0 -5 -5 2
-12 15 -15 16 -32 2 -23 -5 3 -10 1 -10 -5 0 -6 -6 -8 -12 -4 -7 4 -1 -5 14
-20 15 -15 32 -25 38 -21 5 3 10 1 10 -4 0 -14 -27 -14 -35 -1 -3 6 -12 10
-18 10 -8 0 -7 -3 2 -9 8 -5 11 -16 8 -25 -3 -8 -2 -18 3 -21 6 -4 10 -2 10 3
0 6 8 13 18 16 9 3 1 -8 -18 -25 -19 -18 -29 -29 -22 -25 6 4 12 2 12 -3 0
-10 -14 -15 -33 -12 -5 1 -6 -3 -2 -8 3 -6 12 -8 20 -4 20 7 19 -7 -1 -21 -14
-10 -13 -12 3 -12 10 0 31 -4 47 -8 l30 -7 -25 20 c-22 18 -22 19 -3 15 15 -4
21 -1 21 11 0 9 -6 14 -14 11 -7 -3 -13 -1 -13 3 0 5 6 11 12 13 8 3 13 24 13
56 0 41 -3 51 -14 47 -11 -4 -11 -3 -2 9 14 17 7 36 -14 36 -11 0 -12 7 -4 32
11 40 11 41 0 33 -5 -3 -12 -1 -15 4 -7 11 13 9 32 -3 11 -7 12 -4 3 12 -14
26 -14 33 0 30 17 -4 19 30 3 36 -8 3 -11 12 -7 22 6 16 7 16 14 -2 7 -17 8
-17 8 4 1 25 -17 30 -25 7z"/>
<path d="M2408 3671 c-10 -10 -18 -27 -18 -38 0 -26 -10 -35 -26 -22 -9 7 -19
7 -33 -1 -20 -10 -20 -12 19 -49 36 -35 54 -81 31 -81 -5 0 -12 -8 -14 -17 -3
-10 -5 -2 -6 17 -1 37 -34 82 -83 114 -35 23 -116 16 -158 -14 -34 -24 -37
-53 -5 -59 11 -2 25 -11 31 -20 11 -14 14 -14 33 3 18 17 21 17 27 3 3 -9 3
-21 -1 -26 -3 -6 3 -21 15 -33 11 -12 18 -28 15 -36 -2 -7 2 -23 9 -35 13 -19
12 -24 0 -35 -8 -7 -14 -10 -14 -6 0 3 -6 1 -14 -5 -11 -9 -12 -6 -8 14 4 24
-14 35 -32 18 -3 -4 -15 -7 -26 -8 -16 -1 -18 1 -7 14 10 12 9 14 -8 7 -11 -5
-29 -11 -40 -14 -11 -2 -26 -10 -34 -16 -7 -6 -32 -16 -55 -21 -32 -9 -46 -19
-63 -50 -25 -44 -29 -60 -13 -50 6 4 17 2 24 -5 28 -22 83 -31 203 -30 129 0
153 -4 153 -25 0 -7 7 -15 15 -19 12 -4 14 0 8 22 -15 59 -1 82 48 82 15 0 32
7 39 15 10 12 10 15 -4 15 -18 0 -22 25 -5 35 5 4 14 17 19 30 8 21 12 22 35
12 14 -7 28 -21 31 -32 3 -11 13 -35 22 -54 12 -26 13 -36 4 -39 -7 -2 -12
-17 -12 -34 0 -22 4 -29 14 -25 17 7 56 -53 56 -84 0 -27 17 -24 35 9 14 24
15 24 9 3 -3 -13 -15 -39 -26 -58 -19 -32 -21 -33 -32 -14 -6 10 -21 32 -33
48 -14 19 -19 34 -13 43 5 8 3 22 -6 36 l-15 22 -33 -34 c-34 -35 -54 -41 -86
-24 -16 9 -18 8 -13 -6 5 -13 0 -15 -22 -12 -45 5 -39 -15 15 -47 36 -22 48
-35 44 -47 -3 -12 0 -18 9 -18 16 0 45 30 31 31 -5 0 1 4 14 10 18 7 22 14 17
30 -6 18 -4 20 14 14 14 -4 21 -2 21 6 0 29 14 -4 15 -36 1 -33 -1 -35 -32
-35 -34 0 -44 -14 -18 -24 8 -3 15 -12 15 -21 0 -12 -4 -14 -19 -5 -16 8 -26
3 -55 -26 -39 -39 -40 -44 -7 -47 19 -1 21 -7 19 -42 -3 -35 0 -40 20 -43 16
-3 22 -8 18 -19 -5 -12 -1 -14 19 -11 13 3 26 1 27 -4 2 -5 16 2 31 16 34 31
37 32 30 6 -3 -10 2 -26 11 -35 9 -9 16 -12 16 -6 0 6 9 11 20 11 11 0 20 -4
20 -10 0 -5 9 -19 21 -31 22 -22 21 -44 -2 -44 -8 0 -20 6 -27 15 -10 11 -15
12 -18 3 -10 -24 -26 -13 -20 13 5 17 3 23 -4 19 -5 -3 -10 -13 -10 -22 0 -15
-2 -14 -18 0 -10 10 -31 17 -46 17 l-28 0 23 -21 24 -20 -25 12 c-14 6 -48 29
-77 50 -54 40 -70 48 -57 27 5 -8 2 -9 -10 -5 -10 4 -20 7 -22 7 -2 0 -4 4 -4
10 0 5 7 7 15 4 20 -8 19 15 -1 44 -16 24 -7 30 15 10 8 -7 6 -1 -4 14 -19 30
-12 30 -120 2 -27 -7 -53 -10 -57 -8 -12 8 -10 44 3 44 5 0 8 -4 5 -9 -4 -5 9
-6 29 -1 19 4 36 5 39 3 12 -12 55 9 71 33 11 18 13 24 4 19 -11 -6 -11 -5 -2
5 10 11 7 16 -15 27 -14 8 -37 11 -50 8 -19 -5 -23 -3 -19 9 7 19 -1 46 -14
46 -5 0 -9 -12 -9 -26 0 -14 -4 -23 -10 -19 -6 4 -10 -5 -10 -19 0 -14 -5 -26
-11 -26 -8 0 -10 12 -6 33 6 38 0 50 -26 60 -10 4 -15 11 -12 17 3 5 2 10 -3
10 -19 0 -20 -13 -2 -29 22 -19 38 -71 21 -71 -6 0 -28 9 -48 20 -21 11 -32
20 -25 20 9 0 8 6 -3 24 -16 24 -6 44 15 31 6 -3 10 -2 10 3 0 5 15 14 33 20
l32 10 -33 1 c-37 1 -78 -17 -105 -47 -17 -19 -17 -22 -2 -51 18 -36 4 -42
-19 -9 -9 12 -16 16 -16 9 0 -7 11 -22 25 -33 32 -25 33 -50 3 -47 -13 1 -34
-3 -48 -8 -32 -14 -34 -5 -16 58 9 29 13 49 9 46 -3 -4 -11 -3 -17 2 -20 16
-66 22 -66 9 0 -9 -3 -9 -12 0 -21 21 -72 14 -97 -12 -13 -14 -33 -26 -45 -28
-11 -2 -20 -9 -19 -15 1 -6 -11 -16 -27 -23 -16 -7 -32 -20 -35 -30 -3 -10
-12 -21 -20 -24 -10 -4 -9 4 5 27 l19 31 -27 12 -27 12 25 2 25 1 -25 14 c-29
17 -70 20 -70 5 0 -5 6 -10 13 -11 6 -1 1 -4 -13 -8 -31 -10 -36 -6 -20 14 16
19 6 30 -28 31 -15 0 -36 4 -47 8 -20 8 -20 8 0 -9 17 -13 18 -17 5 -25 -12
-7 -11 -10 5 -15 57 -19 75 -29 72 -38 -2 -6 -11 -11 -20 -13 -9 -1 -15 1 -12
6 5 9 -29 20 -64 20 -19 0 -21 -3 -12 -14 10 -11 8 -17 -6 -25 -10 -6 -14 -11
-9 -11 5 0 1 -9 -8 -19 -10 -11 -24 -17 -32 -14 -10 4 -14 -3 -14 -21 0 -21 5
-26 25 -26 29 0 43 -24 26 -44 -9 -11 -9 -15 1 -19 7 -3 -5 -3 -27 0 -33 3
-43 0 -57 -20 -18 -26 -15 -35 24 -60 26 -16 31 -16 64 -2 21 8 39 13 42 10 8
-7 -19 -35 -34 -35 -17 0 -17 1 -3 -39 6 -17 18 -31 26 -31 8 0 12 -5 8 -12
-3 -7 0 -4 7 6 36 53 75 88 126 113 l57 27 -35 6 c-22 3 -35 11 -35 20 0 21
-16 30 -41 24 -16 -4 -27 2 -43 25 -16 23 -30 31 -52 31 -24 0 -29 4 -29 25 0
25 23 35 35 15 8 -13 42 -13 50 0 3 5 1 19 -5 30 -9 16 -8 20 4 20 10 0 13 -6
9 -17 -5 -14 -1 -15 24 -10 27 5 32 3 37 -19 4 -14 20 -39 37 -56 16 -17 32
-42 35 -55 5 -20 12 -23 56 -23 35 0 47 3 42 12 -5 8 5 9 39 5 26 -4 46 -3 46
1 -3 18 2 24 14 15 19 -16 115 -24 114 -10 0 7 1 21 1 31 3 28 17 9 17 -22 0
-18 6 -28 19 -30 10 -2 16 0 12 6 -3 6 0 13 6 15 10 4 9 8 -2 16 -8 6 -10 11
-4 11 18 0 36 -28 37 -56 l0 -26 28 29 c26 26 28 32 21 72 -4 25 -13 46 -20
49 -7 2 -10 -2 -6 -12 7 -19 4 -19 -30 -6 -33 12 -33 33 -1 54 24 16 26 16 34
-7 13 -33 124 -117 148 -111 12 3 36 -14 72 -50 48 -49 54 -59 55 -98 1 -42 0
-43 -32 -43 -55 0 -57 -24 -7 -78 44 -46 49 -63 10 -29 -28 24 -95 107 -95
118 0 5 -9 17 -20 27 -17 14 -18 21 -10 37 15 28 -13 27 -32 -1 -20 -32 -104
-35 -113 -5 -6 21 -6 21 -17 -1 -6 -13 -15 -23 -20 -23 -4 0 -3 -9 4 -20 7
-11 21 -20 30 -20 10 0 18 -4 18 -8 0 -5 24 -14 53 -21 81 -20 119 -32 113
-38 -3 -3 2 -19 10 -35 9 -18 11 -27 4 -23 -6 4 -23 -3 -36 -16 -20 -19 -24
-20 -18 -6 14 37 -34 85 -59 60 -4 -3 -19 -7 -34 -8 -16 -1 -36 -5 -45 -9 -13
-6 -18 -4 -18 8 0 9 -5 16 -11 16 -5 0 -7 5 -4 10 3 6 0 10 -8 10 -8 0 -17 7
-21 15 -6 17 -34 10 -55 -14 -10 -12 -15 -13 -18 -3 -3 6 -11 12 -19 12 -21 0
-17 14 13 49 16 18 37 31 51 31 13 0 21 4 18 9 -4 5 -1 11 6 13 7 3 9 14 4 32
-7 28 -9 28 -61 24 -30 -3 -56 -1 -57 2 -2 4 -13 11 -25 14 -38 12 -28 -23 19
-66 29 -27 39 -41 31 -49 -8 -8 -24 -1 -56 24 -59 45 -119 60 -188 47 -29 -6
-63 -17 -76 -25 -29 -20 -31 -45 -2 -38 15 4 22 0 26 -16 3 -11 10 -21 17 -22
6 -1 0 -5 -14 -9 l-25 -8 25 -1 c14 -1 32 -6 40 -12 11 -7 -2 -9 -47 -7 -68 5
-74 -1 -46 -41 15 -23 15 -25 -3 -40 -31 -26 -24 -54 14 -62 37 -7 54 -19 29
-19 -19 0 -23 -15 -7 -25 6 -3 10 -13 10 -22 0 -12 -3 -13 -14 -4 -9 8 -16 9
-21 2 -10 -16 87 -72 102 -59 10 8 13 4 14 -18 3 -84 -14 -121 -50 -111 -26 6
-51 -10 -51 -34 0 -11 4 -18 9 -14 5 3 12 1 15 -4 7 -10 -13 -9 -31 2 -6 4
-19 -3 -30 -17 -15 -18 -23 -22 -36 -14 -11 5 -17 5 -17 0 0 -6 7 -13 16 -16
8 -3 13 -10 9 -16 -8 -12 21 -18 123 -23 92 -6 122 -19 149 -70 16 -28 19 -69
23 -322 4 -247 7 -287 18 -267 9 16 17 20 25 14 13 -11 61 31 49 43 -4 4 1 12
11 20 16 11 15 14 -16 29 -19 8 -40 22 -47 31 -10 13 -9 15 8 15 11 0 22 -5
24 -11 2 -5 11 -7 21 -3 11 4 14 10 9 18 -5 6 -8 21 -6 33 2 12 0 32 -6 45 -6
17 -9 19 -9 6 -1 -10 -6 -18 -12 -18 -8 0 -10 13 -5 38 3 20 6 51 7 67 0 24 2
26 8 11 6 -16 9 -17 22 -4 12 12 17 12 26 2 9 -9 9 -13 0 -17 -19 -7 -21 -77
-3 -77 8 0 23 -11 34 -25 l20 -25 6 33 c4 17 9 47 13 64 4 27 8 31 23 23 9 -5
20 -6 24 -3 3 3 6 1 6 -5 0 -6 -9 -16 -21 -22 -11 -7 -18 -14 -15 -17 3 -3 12
-1 19 6 31 25 77 -27 77 -88 0 -16 4 -32 10 -36 5 -3 7 -12 3 -20 -3 -8 0 -15
6 -15 6 0 11 5 11 10 0 6 7 10 15 10 8 0 15 -7 15 -15 0 -8 13 -21 30 -30 24
-12 28 -13 24 -1 -4 11 1 11 30 2 19 -6 32 -14 30 -18 -3 -4 22 -10 55 -14 50
-5 61 -10 72 -33 18 -34 30 -45 52 -49 19 -3 24 27 6 45 -20 20 7 23 30 4 25
-22 29 -56 5 -47 -9 3 -14 1 -12 -5 2 -6 8 -11 13 -11 6 0 20 -4 33 -9 13 -5
22 -5 22 1 0 5 8 7 18 3 15 -6 15 -4 -2 15 -11 12 -26 22 -33 22 -17 0 -13 22
5 28 7 2 12 -3 12 -12 0 -9 5 -16 10 -16 6 0 10 5 10 11 0 6 8 8 19 4 30 -9
36 14 7 25 -14 5 -26 14 -26 20 0 5 -7 10 -16 10 -14 0 -14 3 -4 15 11 13 10
14 -4 9 -9 -3 -19 -17 -22 -30 -6 -25 -19 -31 -29 -14 -3 5 -15 10 -26 10 -11
0 -19 7 -19 18 0 12 -3 13 -8 5 -6 -9 -12 -7 -25 7 -9 11 -24 20 -32 20 -8 0
-15 3 -15 8 0 4 23 5 51 3 37 -2 49 -7 45 -16 -3 -8 2 -19 10 -25 12 -10 14
-8 14 14 0 14 -4 26 -10 26 -14 0 -11 18 9 64 l17 39 16 -34 17 -33 6 26 c4
14 2 36 -5 47 -6 12 -8 31 -5 41 5 15 2 20 -11 20 -13 0 -14 3 -4 15 7 8 9 15
4 15 -5 1 4 8 19 16 20 11 25 19 18 27 -12 16 19 60 35 49 6 -4 27 -32 47 -62
60 -90 64 -93 72 -50 6 29 5 29 42 36 26 5 37 1 62 -25 l31 -31 -7 31 c-4 24
-2 34 11 41 9 5 14 13 11 19 -8 11 26 58 42 59 7 0 10 12 6 33 -4 31 -4 31 11
10 14 -19 14 -25 0 -58 -14 -34 -14 -37 0 -32 9 4 16 2 16 -3 0 -6 -6 -10 -12
-11 -7 0 -3 -4 10 -9 29 -12 28 -22 -8 -48 -16 -13 -30 -30 -30 -39 0 -11 4
-13 13 -6 6 5 23 10 36 11 13 0 27 5 30 9 3 5 25 17 48 27 47 21 122 16 147
-10 10 -9 17 -11 21 -4 4 6 23 10 43 10 46 -2 145 15 172 30 11 6 20 17 20 24
0 8 6 16 13 19 21 8 49 75 42 98 -9 28 -45 59 -61 52 -8 -3 -11 -9 -8 -14 3
-5 -6 -4 -20 3 -28 12 -33 23 -15 33 13 9 7 101 -6 98 -6 -1 -11 -11 -13 -23
-2 -11 -6 -20 -10 -20 -4 0 -7 -15 -6 -32 0 -42 -21 -68 -57 -68 -15 0 -30 -6
-32 -12 -4 -10 -6 -10 -6 0 -1 7 -5 10 -11 7 -23 -14 -7 34 30 90 41 62 52 88
24 61 -17 -18 -50 -21 -59 -6 -6 10 -65 9 -65 -1 0 -4 -29 -12 -64 -18 -69
-12 -109 -4 -119 23 -5 12 -15 15 -34 11 -16 -3 -22 -2 -15 1 27 13 17 25
-147 178 -22 21 -41 43 -41 48 0 5 -5 6 -11 2 -8 -5 -9 6 -4 35 6 39 -6 58
-19 29 -3 -7 -4 -5 -3 6 1 11 -7 22 -19 26 l-22 8 18 -61 c10 -34 25 -96 35
-137 9 -41 23 -90 32 -109 11 -25 12 -35 3 -41 -9 -5 -8 -9 2 -12 7 -3 14 -18
16 -33 1 -16 7 -34 13 -41 17 -21 -7 -51 -64 -81 -54 -27 -113 -40 -102 -23 3
6 10 10 16 10 8 0 69 59 69 67 0 2 -10 1 -21 -2 -15 -5 -19 -4 -15 4 5 8 0 8
-19 1 -33 -13 -105 16 -105 42 0 19 -15 24 -25 8 -3 -5 -12 -7 -20 -3 -17 6
-21 49 -5 55 5 2 -3 17 -18 33 -15 17 -28 37 -28 45 -1 8 -3 22 -5 30 -2 8 6
19 19 25 12 5 22 15 22 22 0 7 4 13 8 13 4 0 8 -9 8 -19 0 -11 -4 -17 -8 -15
-4 3 -8 1 -8 -5 0 -5 6 -12 13 -14 9 -4 8 -8 -3 -16 -14 -10 -7 -16 13 -12 5
1 6 -3 2 -9 -3 -5 1 -10 10 -10 9 0 13 -4 10 -10 -4 -6 -13 -5 -25 2 -11 7
-22 9 -26 5 -12 -12 29 -37 52 -32 15 3 29 -5 49 -30 21 -27 33 -34 48 -29 13
4 17 2 13 -5 -5 -7 4 -14 24 -17 17 -4 33 -11 36 -15 3 -5 15 -9 27 -9 21 1
20 2 -7 26 -23 20 -31 23 -37 12 -7 -10 -9 -10 -10 0 -1 6 -2 18 -3 25 -1 6
-9 11 -17 11 -9 -1 -16 6 -15 15 1 9 -8 17 -21 19 -15 2 -23 10 -23 23 0 14 4
18 13 13 9 -6 9 -5 0 8 -7 8 -10 18 -6 21 3 4 1 7 -5 7 -7 0 -12 11 -12 25 0
14 -7 28 -16 32 -12 4 -14 14 -9 40 6 31 4 34 -12 25 -14 -8 -23 -6 -42 11
-13 12 -21 16 -17 10 4 -7 2 -13 -3 -13 -6 0 -11 -5 -11 -11 0 -6 7 -9 14 -6
10 4 13 1 9 -9 -3 -7 -9 -14 -13 -14 -5 0 -17 -3 -27 -7 -16 -6 -16 -5 -4 11
8 9 10 16 5 15 -22 -4 -26 2 -9 14 14 11 15 16 5 22 -9 5 -11 4 -6 -3 5 -8 0
-12 -13 -12 -10 0 -21 -6 -24 -12 -2 -8 -8 -9 -13 -4 -5 5 -4 11 4 13 16 6 16
23 -1 23 -7 0 -18 -9 -25 -20 -11 -17 -10 -23 3 -37 9 -9 14 -24 12 -34 -3
-10 -2 -18 2 -17 21 2 31 -4 31 -22 0 -11 -5 -20 -11 -20 -5 0 -8 4 -4 9 3 5
1 12 -4 15 -5 3 -11 -8 -15 -24 -4 -21 0 -36 12 -49 44 -50 48 -55 28 -48 -13
5 -17 3 -13 -7 3 -8 3 -17 0 -20 -10 -9 -31 41 -38 89 -4 25 -12 42 -17 39
-11 -7 -39 27 -32 38 3 4 0 17 -7 29 -10 19 -9 21 5 16 20 -8 33 17 19 36 -15
21 -15 64 1 80 20 20 20 27 1 27 -17 0 -19 9 -5 30 8 13 11 13 19 1 6 -9 14
-11 26 -4 12 7 14 13 6 17 -6 4 -11 12 -11 19 0 8 3 8 12 -1 7 -7 16 -12 22
-12 5 0 7 3 3 6 -11 11 27 40 68 52 46 13 122 9 138 -7 14 -14 44 -14 53 0 3
6 0 15 -7 20 -11 8 -8 15 16 35 17 13 42 27 57 31 15 3 32 11 38 18 6 7 18 11
28 8 11 -2 30 11 54 41 40 48 42 61 16 149 -14 47 -5 57 27 27 17 -16 25 -19
25 -10 0 11 3 11 12 2 18 -18 28 -15 28 8 0 11 -6 20 -14 20 -9 0 -12 7 -9 19
5 22 40 25 47 4 10 -24 -9 -90 -34 -118 -33 -38 -32 -52 5 -59 19 -4 46 -20
61 -35 23 -25 33 -28 62 -24 25 5 33 3 28 -5 -4 -7 -1 -12 9 -12 11 0 15 5 12
14 -4 10 -1 13 8 10 7 -3 23 -1 34 6 14 7 21 7 21 0 0 -5 7 -10 15 -10 8 0 14
-5 12 -12 -1 -6 7 -14 17 -16 15 -3 17 0 11 14 -24 54 -55 160 -51 174 3 12 4
11 5 -2 0 -10 6 -18 12 -18 7 0 8 24 4 73 -6 66 -5 70 9 53 16 -20 16 -20 16
0 0 11 -4 24 -9 30 -5 5 -5 19 0 32 8 22 10 22 31 8 12 -9 32 -16 44 -16 12 0
37 -7 55 -16 l34 -15 -38 5 c-34 4 -36 3 -27 -14 5 -10 10 -27 10 -36 0 -26
39 -64 59 -57 19 8 31 23 31 41 0 10 -4 10 -20 0 -14 -9 -25 -10 -36 -3 -22
14 -14 30 13 27 26 -4 39 14 23 33 -10 12 -10 15 1 15 7 0 0 13 -17 28 -18 16
-33 42 -37 62 -11 63 -15 75 -42 128 -16 28 -34 52 -42 52 -12 0 -12 2 1 15 8
8 22 15 30 15 26 0 18 17 -14 32 -31 13 -43 35 -14 24 14 -6 15 -4 4 9 -10 12
-15 13 -20 4 -4 -6 -12 -9 -18 -5 -13 8 -58 -29 -65 -53 -2 -10 -1 -25 4 -32
8 -11 14 -9 31 11 20 24 20 24 14 3 -5 -17 -3 -23 7 -23 8 0 17 -6 20 -14 7
-16 -11 -36 -33 -36 -17 0 -72 -57 -76 -77 -2 -12 9 -17 31 -14 6 1 -1 -8 -15
-19 -22 -17 -22 -20 -6 -20 12 0 16 -5 13 -14 -4 -10 -1 -13 9 -9 10 4 14 -2
14 -20 0 -21 -4 -24 -22 -20 -22 4 -21 3 5 -21 15 -14 27 -33 26 -43 0 -11 -3
-13 -6 -5 -2 6 -8 10 -13 7 -4 -3 -13 2 -20 10 -7 8 -21 15 -30 15 -10 0 -21
6 -23 13 -4 9 -8 8 -16 -3 -9 -13 -11 -12 -11 3 0 12 -4 16 -12 11 -7 -5 -25
-7 -41 -6 -16 1 -45 -7 -65 -18 -20 -11 -49 -24 -64 -30 -16 -5 -28 -16 -28
-24 0 -17 -27 -29 -33 -13 -2 7 -14 3 -34 -11 -36 -26 -55 -28 -47 -7 11 27
-4 16 -20 -15 -13 -27 -6 -44 9 -20 4 6 11 8 16 5 5 -4 22 3 38 14 l28 20 -3
-42 c-2 -24 2 -45 9 -49 25 -15 -3 -19 -32 -4 -16 9 -38 16 -47 16 -26 0 -85
-43 -79 -58 3 -9 -3 -10 -20 -6 -15 4 -25 2 -25 -5 0 -6 5 -11 12 -11 6 0 9
-2 7 -5 -3 -2 -16 -1 -30 3 -23 6 -25 10 -17 41 9 31 10 32 23 15 13 -18 15
-18 31 -2 14 14 15 20 4 33 -11 13 -10 18 4 34 15 16 15 20 -1 51 -18 37 -21
27 45 125 38 58 38 61 10 68 -18 5 -19 9 -9 21 14 17 7 36 -15 36 -18 0 -18
15 1 34 23 22 18 29 -15 24 -17 -3 -33 -1 -36 4 -7 12 16 39 27 32 5 -3 6 3 3
13 -3 10 12 0 33 -22 30 -31 47 -41 69 -39 16 1 31 3 34 4 3 2 12 4 20 4 11 1
15 12 14 37 -1 31 2 36 18 31 12 -3 17 -10 14 -19 -25 -63 -16 -77 30 -47 23
16 26 16 39 -2 14 -18 15 -18 21 4 3 12 10 22 14 22 15 0 29 -58 20 -87 -4
-15 -9 -21 -9 -12 -1 20 -68 20 -81 0 -12 -21 10 -53 27 -39 10 8 10 14 2 24
-7 9 -7 14 -1 14 5 0 15 -7 22 -15 7 -8 16 -12 21 -9 5 3 18 -5 29 -18 17 -20
21 -21 30 -8 15 24 12 40 -7 34 -12 -4 -14 -3 -6 3 17 12 29 73 14 73 -19 0
-12 17 10 23 12 3 22 0 26 -9 3 -8 10 -14 15 -14 6 0 8 6 5 14 -3 8 -1 16 5
18 20 7 -35 48 -63 48 -15 0 -31 4 -34 10 -3 5 -20 8 -38 6 -38 -5 -57 8 -57
38 0 34 -44 70 -85 70 -21 0 -30 3 -22 8 8 5 4 8 -10 8 -13 0 -23 -6 -23 -12
0 -9 -4 -8 -10 2 -8 13 -10 13 -10 1 0 -11 -3 -12 -11 -4 -7 7 -26 9 -47 6
-28 -5 -33 -3 -27 7 6 10 4 12 -10 6 -18 -7 -18 -6 0 14 22 24 10 27 -19 3
-12 -10 -15 -11 -8 -3 20 23 14 35 -8 15 -18 -17 -57 -14 -46 3 10 16 -52 52
-89 52 -19 0 -35 4 -35 9 0 5 -9 11 -20 14 -26 7 -26 24 1 32 17 6 20 13 17
40 -3 24 0 31 9 28 7 -3 13 -9 13 -15 0 -5 5 -6 11 -3 6 4 8 13 5 21 -3 8 0
14 7 14 7 1 5 6 -5 14 -15 11 -15 14 -2 27 13 14 12 18 -6 34 -17 16 -23 17
-30 6 -6 -11 -9 -10 -12 5 -2 10 2 24 8 29 18 16 27 65 12 66 -7 1 -26 3 -43
4 -19 2 -37 -3 -47 -14z m-364 -1560 c4 -5 2 -21 -4 -36 -7 -17 -7 -40 -1 -63
5 -21 12 -52 15 -71 l6 -34 -20 26 c-11 14 -20 30 -20 37 0 6 -4 9 -9 6 -5 -4
-13 8 -17 26 l-7 33 -7 -32 c-4 -18 -4 -48 -1 -65 5 -22 3 -41 -6 -55 -12 -19
-12 -27 6 -65 25 -56 38 -67 139 -117 85 -43 100 -64 46 -68 -28 -2 -28 -2 -4
7 20 6 14 8 -29 9 -38 1 -67 8 -96 25 -42 25 -125 116 -106 116 6 0 11 8 11
18 -1 25 -35 94 -43 85 -8 -7 -36 26 -36 42 0 6 6 2 13 -7 13 -18 42 -26 31
-9 -3 5 0 13 6 16 5 4 8 14 5 22 -3 8 -1 11 4 8 13 -8 26 25 13 34 -20 12 -5
55 30 88 36 32 70 42 81 24z"/>
<path d="M1786 3171 c11 -10 21 -14 22 -9 8 18 32 -15 32 -43 0 -16 5 -29 11
-29 6 0 9 7 6 14 -4 10 -1 13 9 9 17 -6 18 -15 3 -30 -9 -9 -5 -13 17 -18 16
-4 48 -12 70 -19 42 -12 42 -12 70 23 16 20 28 39 26 43 -1 5 1 7 6 5 4 -1 9
2 12 7 3 5 -7 10 -22 10 -23 1 -28 -3 -28 -21 0 -13 -5 -22 -12 -20 -18 3 -28
18 -28 44 0 16 -5 20 -20 16 -11 -3 -20 -1 -20 5 0 6 -14 10 -30 10 -17 -1
-33 2 -37 5 -3 4 -12 2 -20 -4 -8 -8 -17 -8 -25 -2 -7 6 -24 13 -37 16 -22 6
-23 5 -5 -12z"/>
<path d="M3646 2666 c-15 -12 -19 -30 -20 -88 -1 -60 -7 -82 -30 -126 -16 -29
-36 -58 -44 -65 -14 -11 27 68 50 100 5 6 8 27 6 45 -4 33 -5 32 -25 -19 -6
-17 -6 -17 -10 0 -5 21 -23 23 -23 2 0 -8 -5 -15 -11 -15 -5 0 -7 -5 -4 -10 4
-6 11 -8 16 -5 5 4 9 2 9 -3 0 -5 -9 -12 -21 -15 -12 -3 -18 -10 -15 -16 3 -5
0 -15 -7 -23 -8 -7 -16 -20 -20 -28 -4 -11 -6 -11 -6 -2 -1 7 -9 21 -18 30
-16 16 -16 16 -9 -3 26 -63 10 -74 -42 -30 -19 15 -33 21 -37 15 -3 -5 -11
-10 -16 -10 -6 0 -3 8 6 17 16 15 15 18 -7 34 -12 10 -29 19 -35 19 -20 0 -45
-47 -38 -69 5 -18 14 -20 61 -18 36 2 53 -1 50 -8 -5 -13 23 -49 47 -58 9 -3
17 -13 17 -22 0 -21 23 -19 38 5 17 27 41 25 52 -5 5 -14 12 -25 15 -25 19 0
45 24 45 41 0 12 11 30 25 41 14 11 25 24 25 29 0 5 14 22 31 37 63 55 70 63
63 74 -5 7 -2 9 8 5 18 -6 41 15 57 53 6 14 19 36 28 50 10 13 13 21 7 17 -6
-3 -30 7 -52 24 -50 37 -135 49 -166 25z"/>
<path d="M3332 2262 c-16 -5 -15 -41 3 -72 16 -28 20 -74 6 -66 -9 6 -21 -40
-21 -85 0 -15 5 -31 10 -34 6 -3 10 3 10 13 0 11 6 25 14 31 8 7 17 27 20 45
6 33 36 72 36 47 0 -6 10 -11 23 -11 13 0 28 -5 35 -12 10 -9 16 -9 29 4 15
16 14 20 -18 67 -19 28 -41 53 -49 57 -24 11 -85 21 -98 16z"/>
<path d="M3422 2108 c3 -7 23 -26 46 -43 30 -22 41 -37 40 -55 -2 -54 1 -60
33 -60 23 0 30 -4 26 -15 -4 -8 -2 -17 4 -20 5 -4 7 -11 4 -16 -10 -15 32 -10
45 6 8 10 30 15 60 15 27 0 55 3 64 6 28 11 6 24 -39 24 -29 0 -45 5 -49 15
-3 8 -12 15 -20 15 -12 0 -14 5 -6 24 7 19 5 25 -13 33 -21 9 -67 -4 -67 -19
0 -5 -4 -8 -10 -8 -21 0 -9 30 18 44 30 16 25 20 -38 30 -19 3 -48 13 -64 21
-34 18 -39 19 -34 3z"/>
<path d="M449 1860 c-34 -20 -31 -88 5 -112 6 -4 55 -8 109 -8 84 0 100 3 117
20 11 11 20 31 20 45 0 14 -9 34 -20 45 -17 17 -33 20 -117 20 -54 0 -105 -5
-114 -10z"/>
</g>
</svg>
